<?xml version="1.0" encoding="UTF-8"?>
<svg id="_レイヤー_2" data-name="レイヤー 2" xmlns="http://www.w3.org/2000/svg" xmlns:xlink="http://www.w3.org/1999/xlink" viewBox="0 0 161.21 161.21">
  <defs>
    <style>
      .cls-1 {
        fill: #fff;
      }

      .cls-2, .cls-3 {
        fill: none;
      }

      .cls-4 {
        fill: url(#_名称未設定グラデーション_8);
      }

      .cls-3 {
        stroke: #fff;
        stroke-miterlimit: 10;
        stroke-width: 3px;
      }
    </style>
    <linearGradient id="_名称未設定グラデーション_8" data-name="名称未設定グラデーション 8" x1="10.79" y1="40.3" x2="150.42" y2="120.91" gradientUnits="userSpaceOnUse">
      <stop offset="0" stop-color="#3fb8ff"/>
      <stop offset=".5" stop-color="#47c5fd"/>
      <stop offset=".93" stop-color="#51d4fc"/>
    </linearGradient>
  </defs>
  <g id="_レイヤー_1-2" data-name="レイヤー 1">
    <circle class="cls-4" cx="80.6" cy="80.6" r="80.6"/>
    <circle class="cls-3" cx="80.6" cy="80.6" r="75.35"/>
    <g>
      <path class="cls-2" d="M26.1,26.1h109v109H26.1V26.1Z"/>
      <path class="cls-1" d="M80.61,126.02c-2.51,0-4.54-2.03-4.54-4.54v-18.17c0-2.51,2.03-4.54,4.54-4.54s4.54,2.03,4.54,4.54v18.17c0,2.51-2.03,4.54-4.54,4.54Z"/>
      <path class="cls-1" d="M71.53,121.48c-1.67,0-3.27-.92-4.07-2.51-1.12-2.24-.21-4.97,2.03-6.09l18.17-9.08c2.24-1.11,4.97-.22,6.09,2.03,1.12,2.24.21,4.97-2.03,6.09l-18.17,9.08c-.65.32-1.34.48-2.03.48Z"/>
      <path class="cls-1" d="M89.69,121.48c-.68,0-1.38-.16-2.03-.48l-18.17-9.08c-2.24-1.12-3.15-3.85-2.03-6.09,1.12-2.24,3.85-3.14,6.09-2.03l18.17,9.08c2.24,1.12,3.15,3.85,2.03,6.09-.8,1.59-2.4,2.51-4.07,2.51Z"/>
      <path class="cls-1" d="M48.81,126.02c-2.51,0-4.54-2.03-4.54-4.54v-18.17c0-2.51,2.03-4.54,4.54-4.54s4.54,2.03,4.54,4.54v18.17c0,2.51-2.03,4.54-4.54,4.54Z"/>
      <path class="cls-1" d="M39.73,121.48c-1.67,0-3.27-.92-4.07-2.51-1.12-2.24-.21-4.97,2.03-6.09l18.17-9.08c2.24-1.11,4.97-.22,6.09,2.03,1.12,2.24.21,4.97-2.03,6.09l-18.17,9.08c-.65.32-1.34.48-2.03.48Z"/>
      <path class="cls-1" d="M57.89,121.48c-.68,0-1.38-.16-2.03-.48l-18.17-9.08c-2.24-1.12-3.15-3.85-2.03-6.09,1.12-2.24,3.85-3.14,6.09-2.03l18.17,9.08c2.24,1.12,3.15,3.85,2.03,6.09-.8,1.59-2.4,2.51-4.07,2.51Z"/>
      <path class="cls-1" d="M112.4,126.02c-2.51,0-4.54-2.03-4.54-4.54v-18.17c0-2.51,2.03-4.54,4.54-4.54s4.54,2.03,4.54,4.54v18.17c0,2.51-2.03,4.54-4.54,4.54Z"/>
      <path class="cls-1" d="M103.32,121.48c-1.67,0-3.27-.92-4.07-2.51-1.12-2.24-.21-4.97,2.03-6.09l18.17-9.08c2.24-1.11,4.97-.22,6.09,2.03,1.12,2.24.21,4.97-2.03,6.09l-18.17,9.08c-.65.32-1.34.48-2.03.48Z"/>
      <path class="cls-1" d="M121.48,121.48c-.68,0-1.38-.16-2.03-.48l-18.17-9.08c-2.24-1.12-3.15-3.85-2.03-6.09,1.12-2.24,3.85-3.14,6.09-2.03l18.17,9.08c2.24,1.12,3.15,3.85,2.03,6.09-.8,1.59-2.4,2.51-4.07,2.51Z"/>
      <path class="cls-1" d="M80.61,71.52c-10.02,0-18.17-8.15-18.17-18.17s8.15-18.17,18.17-18.17,18.17,8.15,18.17,18.17-8.15,18.17-18.17,18.17ZM80.61,44.27c-5.01,0-9.08,4.08-9.08,9.08s4.07,9.08,9.08,9.08,9.08-4.08,9.08-9.08-4.07-9.08-9.08-9.08Z"/>
      <path class="cls-1" d="M103.31,94.23c-2.51,0-4.54-2.03-4.54-4.54s-2.04-4.54-4.54-4.54h-27.25c-2.5,0-4.54,2.04-4.54,4.54s-2.03,4.54-4.54,4.54-4.54-2.03-4.54-4.54c0-7.51,6.11-13.62,13.62-13.62h27.25c7.51,0,13.62,6.11,13.62,13.62,0,2.51-2.03,4.54-4.54,4.54Z"/>
    </g>
  </g>
</svg>