<?xml version="1.0" encoding="UTF-8"?>
<svg id="_レイヤー_2" data-name="レイヤー 2" xmlns="http://www.w3.org/2000/svg" viewBox="0 0 390.69 338.76">
  <defs>
    <style>
      .cls-1 {
        fill: #1e1e1e;
      }

      .cls-2 {
        fill: none;
      }
    </style>
  </defs>
  <g id="_レイヤー_1-2" data-name="レイヤー 1">
    <g>
      <path class="cls-1" d="M304.64,100.74c5.33,67.55-50.63,123.51-118.18,118.18-53.14-4.19-96.2-47.24-100.39-100.39C80.74,50.98,136.7-4.98,204.25.35c53.14,4.19,96.2,47.25,100.39,100.39Z"/>
      <path class="cls-1" d="M300.21,338.76H90.52c3.98-58.75,21.22-100.24,57.19-128.66h95.3c35.98,28.42,53.21,69.9,57.19,128.66Z"/>
      <path class="cls-1" d="M390.69,144.58s-2.76,18.86-8.36,33.82c-6.68,17.83-18.67,30.71-18.67,30.71,0,0-27.9-28.55-65.32-43.45l15.41-36.21c26.69,10.81,49.42,13.47,76.94,15.13Z"/>
      <rect class="cls-1" x="285.04" y="117.79" width="14.82" height="215.91" transform="translate(110.84 -95.98) rotate(22.89)"/>
      <rect class="cls-2" x="0" width="390.69" height="338.76"/>
    </g>
  </g>
</svg>