<?xml version="1.0" encoding="UTF-8"?>
<svg id="_レイヤー_2" data-name="レイヤー 2" xmlns="http://www.w3.org/2000/svg" viewBox="0 0 219.27 338.76">
  <defs>
    <style>
      .cls-1 {
        fill: #1e1e1e;
      }
    </style>
  </defs>
  <g id="_レイヤー_1-2" data-name="レイヤー 1">
    <path class="cls-1" d="M157.29,210.1h-3.75c38.69-16.93,65.73-55.53,65.73-100.46C219.27,49.09,170.19,0,109.64,0S0,49.09,0,109.64c0,44.93,27.04,83.53,65.73,100.46h-3.75c-35.97,28.42-53.21,69.9-57.19,128.66h209.69c-3.98-58.75-21.22-100.24-57.19-128.66ZM109.64,179.47c-27.9,0-51.7-21.59-61.06-51.96,12.41,23.93,35.11,39.96,61.06,39.96s48.66-16.03,61.07-39.96c-9.36,30.37-33.16,51.96-61.07,51.96Z"/>
  </g>
</svg>