<?xml version="1.0" encoding="UTF-8"?>
<svg id="_レイヤー_2" data-name="レイヤー 2" xmlns="http://www.w3.org/2000/svg" viewBox="0 0 325.11 338.76">
  <defs>
    <style>
      .cls-1 {
        fill: #1e1e1e;
      }

      .cls-2 {
        fill: none;
      }
    </style>
  </defs>
  <g id="_レイヤー_1-2" data-name="レイヤー 1">
    <g>
      <path class="cls-1" d="M271.84,100.74c5.33,67.55-50.63,123.51-118.18,118.18-53.14-4.19-96.2-47.24-100.39-100.39C47.94,50.98,103.9-4.98,171.45.35c53.14,4.19,96.2,47.25,100.39,100.39Z"/>
      <path class="cls-1" d="M267.41,338.76H57.72c3.98-58.75,21.22-100.24,57.19-128.66h95.3c35.98,28.42,53.21,69.9,57.19,128.66Z"/>
      <path class="cls-1" d="M289.01,257.36c-.27-.03-.54-.06-.81-.09-.04,0-.08,0-.12-.01-.31-.04-.62-.08-.94-.13-.07-.01-.14-.02-.21-.03-.25-.04-.5-.08-.75-.12-.11-.02-.21-.04-.32-.06-.25-.04-.5-.09-.76-.14-.09-.02-.18-.03-.27-.05-.16-.03-.32-.07-.49-.1l40.76-112.69-4.6-23.72-16.24,14.89-1.57,1.44-34.2,114.64c-11.4-5.67-10.57-11.06-17.09-13h0c-1.12-.33-2.41-.55-3.95-.62,2.35,8.03-.74,13.03,1.23,16.37.77,1.31,2.31,2.36,5.26,3.24l13.56,4.47-2.44,7.39h0l-5.53,16.77h0l-2.5,7.6s0,0,0,0h0s-8,9.4-8,9.4l3.62,9.09,2.54,6.39h0s0,0,0,0l14.16-8.78-.84-12.32h0s0,0,0,0l2.5-7.6h0s1.63-4.93,1.63-4.93h0l2.28-6.91h0s1.63-4.93,1.63-4.93h0s2.44-7.39,2.44-7.39l9.01,2.97s0,0,0,0l6.04,1.99c5.72,2.06,7.43.32,9.41-2.84,1.59-2.52,3.35-5.95,7.47-9.07h0s0,0,0,0c0,0-.02,0-.02-.01-.3-.2-.6-.39-.89-.56-.02,0-.03-.02-.05-.03-.29-.17-.56-.33-.83-.47-.02,0-.03-.02-.05-.03-.27-.14-.53-.27-.79-.38-.02,0-.03-.01-.05-.02-.25-.11-.5-.21-.74-.3,0,0-.02,0-.03-.01h0s-.01,0-.02,0c-.26-.1-.52-.18-.77-.25-.02,0-.05-.01-.07-.02-.24-.06-.47-.12-.7-.16-.03,0-.06-.01-.09-.02-.22-.04-.44-.07-.65-.09-.04,0-.07,0-.11-.01-.21-.02-.42-.03-.62-.04-.04,0-.07,0-.11,0-.2,0-.41,0-.61,0-.04,0-.08,0-.12,0-.2.01-.4.03-.6.05-.05,0-.1,0-.15.02-.18.02-.37.05-.55.07-.1.01-.19.03-.29.05-.12.02-.24.04-.36.06-2.06.37-4.33,1.02-7.53,1.2,0,0,0,0,0,0-1.44.08-3.07.06-4.95-.13-.05,0-.1-.01-.16-.02Z"/>
    </g>
    <rect class="cls-2" x="0" width="325.11" height="338.76"/>
  </g>
</svg>