<?xml version="1.0" encoding="UTF-8"?>
<svg id="_レイヤー_2" data-name="レイヤー 2" xmlns="http://www.w3.org/2000/svg" viewBox="0 0 346.06 332.34">
  <defs>
    <style>
      .cls-1 {
        fill: #1e1e1e;
      }

      .cls-2 {
        fill: #eaeaea;
      }
    </style>
  </defs>
  <g id="_レイヤー_1-2" data-name="レイヤー 1">
    <g>
      <path class="cls-1" d="M61.17,20.95h-30.49c-2.06.37-3.37,1.68-3.55,3.55v89.42c-.37,2.24-1.68,3.55-3.74,3.74h-5.05c-2.43,0-3.74,1.12-3.74,3.55v5.05c-.37,2.24-1.5,3.55-3.55,3.74H3.74c-2.24-.19-3.55-1.5-3.74-3.74v-7.3c.19-1.87,1.5-3.18,3.74-3.55h5.05c2.43,0,3.55-1.31,3.74-3.74V24.51c-.19-2.06-1.5-3.37-3.74-3.55h-2.43c-2.06-.19-3.18-1.5-2.99-3.74v-6.92c-.19-1.87.93-3.18,2.99-3.56h54.81c2.25.19,3.56,1.5,3.74,3.56v6.92c-.19,2.43-1.5,3.55-3.74,3.74ZM63.6,55.56v86.61c-.56,4.68-3.18,7.11-7.86,7.3h-15.9c-4.67-.19-7.29-2.62-7.85-7.3V55.56c.56-4.49,3.18-7.3,7.85-7.86h15.9c4.68.56,7.3,3.37,7.86,7.86ZM44.9,81.56v34.79h6.36v-34.79h-6.36ZM83.24,54.25v96.15h-5.61V58.74c-2.24,2.06-4.86,4.12-7.3,5.99-1.31-1.31-2.24-2.62-3.55-4.12l25.44-21.33v-21.14h-6.36v17.4h-5.42V12.72h11.79V0h5.61v41.9l-14.59,12.35ZM70.33,12.72h5.61v22.82h-5.61V12.72ZM122.9,150.4h-35.17V55.18h12.35l16.46-14.22v-13.66h5.61v16.46c-4.68,3.74-9.17,7.67-13.84,11.41h14.59v95.22ZM93.16,84.93h24.32v-24.32h-24.32v24.32ZM93.16,113.92h24.32v-23.57h-24.32v23.57ZM117.47,144.98v-25.63h-24.32v25.63h24.32ZM102.32,39.66V0h5.43v12.72h36.29v22.82h-5.61v-17.4h-30.68v21.51h-5.43ZM126.64,27.31h5.42v14.03h-5.42v-14.03ZM153.21,60.61h-20.2v24.32h18.33v5.43h-18.33v23.57h18.33v5.42h-18.33v25.63h20.2v5.42h-25.63V55.18h25.63v5.42ZM147.97,12.72h5.99v22.82h-5.99V12.72Z"/>
      <rect class="cls-1" x="191.91" y="14.97" width="9.91" height="9.73"/>
      <polygon class="cls-1" points="337.63 132.82 285.82 132.82 285.82 141.98 265.05 152.27 244.1 141.98 244.1 132.82 192.47 132.82 192.47 122.34 244.1 122.34 265.05 132.82 285.82 122.34 337.63 122.34 337.63 132.82"/>
      <path class="cls-1" d="M196.77,33.67l17.4,11.04c2.06,1.68,3.18,3.74,3.55,6.36v33.11c-.19,2.62-1.5,4.86-3.55,6.36l-17.4,11.04c-2.06.93-3.37.56-3.55-1.87v-13.84c.19-2.62,1.31-4.86,3.55-6.55l15.34-9.35c1.87-1.5,1.87-2.99,0-4.49l-15.34-9.54c-2.24-1.5-3.37-3.55-3.55-6.36v-13.84c.19-2.24,1.31-2.99,3.55-2.06Z"/>
      <rect class="cls-1" x="205.38" y="14.97" width="10.1" height="9.73"/>
      <rect class="cls-1" x="219.04" y="14.97" width="9.91" height="9.73"/>
      <path class="cls-1" d="M302.84,39.66h-37.42c-6.73.37-10.29,4.12-10.85,10.48v7.3h-27.5v-7.3c1.12-10.66,7.11-16.84,18.15-17.96h57.62v7.48Z"/>
      <path class="cls-1" d="M254.58,82.12v11.97h20.95v-14.22h27.31v21.51h-75.76v-19.27c.93-11.04,6.92-17.02,18.15-18.15h57.62v7.3h-37.42c-6.73.56-10.29,4.3-10.85,10.85Z"/>
      <rect class="cls-1" x="232.69" y="14.97" width="10.1" height="9.73"/>
      <polygon class="cls-1" points="244.1 116.73 244.1 108.31 285.82 108.31 285.82 116.73 265.05 127.02 244.1 116.73"/>
      <rect class="cls-1" x="246.35" y="1.5" width="9.92" height="9.91"/>
      <rect class="cls-1" x="246.35" y="14.97" width="9.92" height="9.73"/>
      <rect class="cls-1" x="260.19" y="1.5" width="9.73" height="9.91"/>
      <rect class="cls-1" x="260.19" y="14.97" width="9.73" height="9.73"/>
      <rect class="cls-1" x="273.66" y="1.5" width="10.1" height="9.91"/>
      <rect class="cls-1" x="273.66" y="14.97" width="10.1" height="9.73"/>
      <rect class="cls-1" x="287.13" y="14.97" width="10.1" height="9.73"/>
      <rect class="cls-1" x="301.16" y="14.97" width="9.54" height="9.73"/>
      <path class="cls-1" d="M333.15,55.93l-15.15,9.54c-1.87,1.5-1.87,2.99,0,4.49l15.15,9.35c2.06,1.68,3.37,3.93,3.55,6.55v13.84c-.37,2.43-1.5,2.8-3.55,1.87l-17.21-11.04c-2.43-1.5-3.55-3.74-3.74-6.36v-33.11c.19-2.62,1.5-4.68,3.74-6.36l17.21-11.04c2.06-.93,3.37-.19,3.55,2.06v13.84c-.19,2.8-1.5,4.86-3.55,6.36Z"/>
      <rect class="cls-1" x="314.63" y="14.97" width="10.1" height="9.73"/>
      <rect class="cls-1" x="328.28" y="14.97" width="9.91" height="9.73"/>
      <path class="cls-1" d="M252.71,257.14c-.93,29.18-12.72,52.57-35.73,69.78-7.3,4.3-13.85,3.37-19.27-2.99-3.93-7.11-2.8-13.47,3.37-18.89,13.65-10.48,21.7-24.13,24.13-41.16l-26.19,14.97c-.56.56-1.31.75-1.87.56-1.5,0-2.24-.56-2.8-1.68-1.12-2.06-.75-3.74,1.12-5.05l30.12-17.21c-.19-6.17-1.5-12.16-3.55-18.15l-23.01,13.47c-.56.19-1.31.37-1.87.37-1.5,0-2.24-.56-2.8-1.87-1.12-1.87-.75-3.55,1.12-4.86l23.76-13.66c-4.49-8.42-10.48-15.53-18.15-21.51-6.17-5.24-7.3-11.6-3.37-18.89,5.42-6.17,11.97-7.3,19.27-3.18,23.01,17.77,34.79,40.97,35.73,69.96ZM217.54,198.21c-.56-5.24-3.55-7.86-8.61-8.42-5.42.56-8.04,3.37-8.6,8.42.56,5.24,3.18,8.04,8.6,8.61,5.24-.37,8.05-3.37,8.61-8.61ZM217.54,316.25c-.56-5.43-3.37-8.04-8.61-8.61-5.42.56-8.04,3.37-8.6,8.61.56,5.05,3.18,7.86,8.6,8.42,5.05-.37,8.05-3.18,8.61-8.42ZM341.38,329.16l-26.56-26.38v-35.92h-21.89v55.75h9.73v-13.65h6.73v20.2h-54.81v-6.55h7.3v-129.08h26v-14.03h31.05v14.03h24.51v73.33h-21.89v33.3l24.51,24.5-4.68,4.49ZM336.89,260.13v-59.49h-43.96v23.57h26v6.74h-26v29.18h43.96ZM327.35,289.88h10.48v-13.84h6.92v20.39h-17.4v-6.55Z"/>
      <path class="cls-1" d="M112.44,332.34h-62.88c-1.35,0-2.65-.54-3.6-1.49L1.49,286.38c-.96-.96-1.49-2.25-1.49-3.6v-62.88c0-1.35.54-2.65,1.49-3.6l44.46-44.46c.96-.96,2.25-1.49,3.6-1.49h62.88c1.35,0,2.65.54,3.6,1.49l44.46,44.46c.96.96,1.49,2.25,1.49,3.6v62.88c0,1.35-.54,2.65-1.49,3.6l-44.46,44.46c-.96.96-2.25,1.49-3.6,1.49ZM57.35,313.54h47.31c1.35,0,2.65-.54,3.6-1.49l33.45-33.45c.96-.96,1.49-2.25,1.49-3.6v-47.31c0-1.35-.54-2.65-1.49-3.6l-33.45-33.45c-.96-.96-2.25-1.49-3.6-1.49h-47.31c-1.35,0-2.65.54-3.6,1.49l-33.45,33.45c-.96.96-1.49,2.25-1.49,3.6v47.31c0,1.35.54,2.65,1.49,3.6l33.45,33.45c.96.96,2.25,1.49,3.6,1.49Z"/>
      <path class="cls-1" d="M97.65,284.03c-.48-.09.07-.55.18-.79.62-1.46.95-2.88,1.08-4.46l-.33-.21c-1.45,3.37-3.36,6.67-5.58,9.6-.38-.08.04-.58-.55-.28-1.37.7-2.56,5.3-3.62,6.6-.68-.62.05-1.79.09-2.61-.45-.27-.38.77-.69.92l-2.98-7.63c-.76.82-1.45,1.69-2.24,2.48-4.25,4.24-10.41,7-16.17,8.46-.72.18-6.62,1.42-6.8,1.08,5.66-3.07,12.65-4.46,16.2-10.44.15-.26.02-.16-.15-.12-.59.17-1.08.58-1.64.82-5.37,2.31-11.37,3.12-17.13,3.79.04-.27.24-.2.4-.27,3.71-1.41,8.19-2.12,11.27-4.89,2.99-2.69,3.98-7.03,3.49-10.9-.06-.45-.49-3.23-1.12-3.08-.63.67-.65,1.71-.95,2.47-1.03,2.58-3.81,5.46-6.01,7.11-2.6,1.95-6.11,3.62-9.42,3.36,6.12-2.47,13.02-8.33,10.32-15.69,1.12.59,1.92,1.85,2.57,2.91.06.11.1.4.3.25.28-2.03-.72-4.02-1.76-5.7-1.78-2.86-4.18-5.4-6.44-7.87l1.63,9.9c.51.8,1.99-.03,2.64-.31-2.46,5.21-7.79,10.05-13.97,8.59,4.06-1.95,6.49-3.45,5.86-8.44l-1.07-4.91c1.23,1.74,1.85,3.8,2.42,5.83.16-.03.18-.34.22-.48.76-3.29.34-8.44-2.08-10.98l-1.66-1.41c.68.23,1.44.08,2.12-.05,2.24-.42,5.05-1.61,6.58-3.32-2.91.41-6.35-.74-8.67-2.51-.41-.32-1.48-1.54-1.67-1.62-.56-.24-2.5-.38-3.28-.54-2.42-.5-4.81-1.11-7.18-1.82-.45-.14-.95-.48-1.32-.57-.68-.18-2.01.17-2.77.04l.98-.47c2.19-.61,4.81-.57,6.54-2.23l-.85-.2c1.05-.25,2.11-.53,3.13-.9,1.31-.47,2.92-1.18,4.14-1.83.22-.12,1.1-.6,1.21-.72.13-.14.06-.19-.1-.23-.45-.11-1.09-.1-1.55-.06-.69.07-1.29.39-1.96.41,1.97-2.09,5.11-1.53,7.59-2.54-.17-.72-1.03-.88-1.62-1.28-1.28-.88-4.58-3.32-5.02-4.76-.31-1.01.63-2.1,1.35-2.72,3.81-3.28,14.08-4.39,19-3.97,2.81-1.12,5.24-2.96,8.22-3.59,2.15-.45,4.57-.43,6.66-1.08.99-.31,1.93-1.04,2.99-.99,1.88.08,3.3,1.61,5.11,1.88,3.72.56,10.95-5.12,14.51-6.83,1.35-.65,3-.84,4.29-1.5,1.84-.95,3.88-3.27,6.04-1.43,1.17.99.46,1.72.44,2.95-.03,1.77,1.81,2.54,2.26,4.05.42,1.42-.54,3.11-1,4.44-.14.4-.18,1.21-.37,1.55-.33.61-2.59,2.47-3.26,3.2-.73.79-2.97,3.17-2.7,4.23.06.25.66.04.85-.01,1.97-.56,2.27-1.93,3.52-3.25.55-.59.93-1.01,1.81-.65.31.13,1.01,2.29,1.29,2.71l1.51-.44c1.64,1.46.99,4.7.18,6.46-2.08,4.47-11.27,8.19-14.99,12.66-3.63,4.36-2.95,7-3.42,12.13-.72,7.78-2.1,16.32-6.9,22.7ZM91.94,224.57c-3.03-.15-6.18,1.25-8.65,2.95-.2.14-1.3.83-1.21,1.02l6.72-.63,1.75-2.29,1.39-1.05ZM80.33,236.45c-.07-.15-1.81.38-2.03.46-5.06,1.89-6.88,7.42-5.57,12.36.09.35.82,2.72.93,2.83.19.18.21-.04.22-.19.17-2.41.23-3.79,1.96-5.66,1.88-2.03,4.59-2.83,7.18-3.47.25-.17-1.39-1.27-1.56-1.36-1.02-.55-2.14-.87-3.29-.68l-1.82.5c.63-2.08,2.49-3.36,3.98-4.8ZM82.39,246.78c-.19-.29-1.73.6-1.99.77-1.49,1-2.24,2.07-2.68,3.81-.24.97-.27,1.99-.38,2.98l1.63-2.67c1.06-1.58,1.81-2.3,3.79-2.43l-.37-2.45Z"/>
      <path class="cls-2" d="M80.33,236.45c-1.48,1.44-3.35,2.72-3.98,4.8l1.82-.5c1.15-.2,2.27.13,3.29.68.17.09,1.81,1.18,1.56,1.36-2.59.64-5.31,1.44-7.18,3.47-1.73,1.87-1.79,3.25-1.96,5.66-.01.16-.03.38-.22.19-.11-.1-.84-2.48-.93-2.83-1.31-4.94.51-10.47,5.57-12.36.22-.08,1.97-.62,2.03-.46Z"/>
      <path class="cls-2" d="M91.94,224.57l-1.39,1.05-1.75,2.29-6.72.63c-.09-.19,1.01-.88,1.21-1.02,2.47-1.69,5.62-3.09,8.65-2.95Z"/>
      <path class="cls-2" d="M82.39,246.78l.37,2.45c-1.98.13-2.73.86-3.79,2.43l-1.63,2.67c.11-.98.13-2.01.38-2.98.44-1.74,1.19-2.81,2.68-3.81.26-.17,1.8-1.06,1.99-.77Z"/>
    </g>
  </g>
</svg>