<?xml version="1.0" encoding="UTF-8"?>
<svg id="_レイヤー_2" data-name="レイヤー 2" xmlns="http://www.w3.org/2000/svg" viewBox="0 0 109.03 180.51">
  <defs>
    <style>
      .cls-1 {
        fill: #1e1e1e;
        stroke: #1e1e1e;
        stroke-linecap: round;
        stroke-linejoin: round;
        stroke-width: .5px;
      }
    </style>
  </defs>
  <g id="_レイヤー_1-2" data-name="レイヤー 1">
    <path class="cls-1" d="M82.57,120.48c15.71-9.5,26.21-26.74,26.21-46.43,0-7.17-1.39-14.01-3.93-20.28l1.16,3.64-1.18-3.68c-.48-1.19-.99-2.35-1.58-3.49L80.76.25l-14.32,20.76-.02.09c-3.83-.89-7.82-1.33-11.9-1.33s-7.89.42-11.62,1.26v-.02L28.57.25,7.64,46.75c-1.98,3.32-3.56,6.85-4.77,10.59l-.03.07c-1.68,5.23-2.59,10.83-2.59,16.63,0,19.69,10.49,36.93,26.2,46.43-14.76,13.88-22.04,33.27-23.83,59.78h103.78c-1.8-26.51-9.07-45.9-23.83-59.78ZM73.78,103.13l-3.75,7.64-1.75-3.57c-4.17,2.43-8.84,3.79-13.76,3.79-13.81,0-25.59-10.68-30.23-25.72,6.14,11.84,17.38,19.78,30.23,19.78s24.08-7.93,30.23-19.78c-2.21,7.17-6.05,13.35-10.96,17.85Z"/>
  </g>
</svg>