<?xml version="1.0" encoding="UTF-8"?>
<svg id="_レイヤー_2" data-name="レイヤー 2" xmlns="http://www.w3.org/2000/svg" viewBox="0 0 120 120">
  <defs>
    <style>
      .cls-1 {
        fill: none;
      }

      .cls-2 {
        fill: #1ace6d;
      }
    </style>
  </defs>
  <g id="_レイヤー_1-2" data-name="レイヤー 1">
    <path class="cls-1" d="M0,0h120v120H0V0Z"/>
    <path class="cls-2" d="M62.88,20.49l36.64,36.64c2.56,2.56.75,6.95-2.88,6.95h-4.07v24.42c0,6.74-5.47,12.21-12.21,12.21h-4.07v-28.49c0-6.47-5.04-11.81-11.5-12.19l-.72-.02h-8.14c-6.74,0-12.21,5.47-12.21,12.21v28.49h-4.07c-6.74,0-12.21-5.47-12.21-12.21v-24.42h-4.07c-3.62,0-5.44-4.38-2.88-6.95L57.12,20.49c1.59-1.59,4.17-1.59,5.76,0M64.07,68.14c2.25,0,4.07,1.82,4.07,4.07v28.49h-16.28v-28.49c0-2.06,1.54-3.8,3.59-4.04l.48-.03h8.14Z"/>
  </g>
</svg>