<?xml version="1.0" encoding="UTF-8"?>
<svg id="_レイヤー_2" data-name="レイヤー 2" xmlns="http://www.w3.org/2000/svg" viewBox="0 0 100 100">
  <defs>
    <style>
      .cls-1 {
        fill: none;
      }

      .cls-2 {
        fill: #47a2ff;
      }
    </style>
  </defs>
  <g id="_レイヤー_1-2" data-name="レイヤー 1">
    <path class="cls-1" d="M0,0h100v100H0V0Z"/>
    <path class="cls-2" d="M60.77,17.77c.38,1.58,1.98,2.55,3.56,2.17.3-.07.58-.19.84-.35,9.93-6.04,21.29,5.31,15.24,15.24-.85,1.39-.41,3.2.98,4.05.26.16.54.27.84.35,11.3,2.74,11.3,18.81,0,21.55-1.58.38-2.55,1.98-2.17,3.56.07.3.19.58.35.84,6.04,9.93-5.31,21.29-15.24,15.24-1.39-.85-3.2-.41-4.05.98-.16.26-.27.54-.35.84-2.74,11.3-18.81,11.3-21.55,0-.38-1.58-1.98-2.55-3.56-2.17-.3.07-.58.19-.84.35-9.93,6.04-21.29-5.31-15.24-15.24.85-1.39.41-3.2-.98-4.05-.26-.16-.54-.27-.84-.35-11.3-2.74-11.3-18.81,0-21.55,1.58-.38,2.55-1.98,2.17-3.56-.07-.3-.19-.58-.35-.84-6.04-9.93,5.31-21.29,15.24-15.24,1.38.85,3.19.42,4.04-.97.16-.26.28-.55.35-.85,2.74-11.3,18.81-11.3,21.55,0ZM50,37.79c-6.74,0-12.21,5.47-12.21,12.21s5.47,12.21,12.21,12.21,12.21-5.47,12.21-12.21-5.47-12.21-12.21-12.21Z"/>
  </g>
</svg>