<?xml version="1.0" encoding="UTF-8"?>
<svg id="_レイヤー_2" data-name="レイヤー 2" xmlns="http://www.w3.org/2000/svg" viewBox="0 0 100 100">
  <defs>
    <style>
      .cls-1 {
        fill: none;
      }

      .cls-2 {
        fill: #f17045;
      }
    </style>
  </defs>
  <g id="_レイヤー_1-2" data-name="レイヤー 1">
    <path class="cls-1" d="M0,0h100v100H0V0Z"/>
    <path class="cls-2" d="M42.25,13.18c0-3.41,4.09-5.16,6.56-2.8,7.59,7.27,12,23.24,6.78,35.35l-.31.67h.05c2.42.53,4.66-1.66,8.93-8.41l.54-.87c1.13-1.82,3.52-2.38,5.34-1.25.29.18.56.4.79.65,5.17,5.56,10.08,16.97,10.08,24.31,0,16.53-13.92,29.87-31.01,29.87s-31.01-13.33-31.01-29.87c0-8.73,3.96-18.28,10.2-24.43l2.35-2.28c.93-.91,1.68-1.67,2.4-2.42,5.54-5.86,8.31-11.33,8.31-18.53"/>
  </g>
</svg>