<?xml version="1.0" encoding="UTF-8"?>
<svg id="_レイヤー_2" data-name="レイヤー 2" xmlns="http://www.w3.org/2000/svg" viewBox="0 0 100 100">
  <defs>
    <style>
      .cls-1 {
        fill: none;
      }

      .cls-2 {
        fill: #fcd430;
      }

      .cls-3 {
        fill: #f17045;
      }
    </style>
  </defs>
  <g id="_レイヤー_1-2" data-name="レイヤー 1">
    <path class="cls-1" d="M0,0h100v100H0V0Z"/>
    <path class="cls-3" d="M42.25,13.18c0-3.41,4.09-5.16,6.56-2.8,7.59,7.27,12,23.24,6.78,35.35l-.31.67h.05c2.42.53,4.66-1.66,8.93-8.41l.54-.87c1.13-1.82,3.52-2.38,5.34-1.25.29.18.56.4.79.65,5.17,5.56,10.08,16.97,10.08,24.31,0,16.53-13.92,29.87-31.01,29.87s-31.01-13.33-31.01-29.87c0-8.73,3.96-18.28,10.2-24.43l2.35-2.28c.93-.91,1.68-1.67,2.4-2.42,5.54-5.86,8.31-11.33,8.31-18.53"/>
    <g>
      <path class="cls-2" d="M11.46,31.38c.12.29.34.54.66.75.32.21.65.28,1,.19.8-.2,1.14-.73,1.03-1.6l-2.41-21.26c-.04-.38-.15-.9-.31-1.56-.26-1.03-.84-1.88-1.76-2.56-.92-.67-2.03-.85-3.34-.52-1.35.33-2.26,1.02-2.74,2.06-.48,1.02-.59,2.03-.34,3.04.15.62.3,1.13.45,1.53l7.77,19.94Z"/>
      <path class="cls-2" d="M17.1,35.75c-.97-.59-2.05-.73-3.25-.44s-2.05.94-2.66,1.93c-.6,1-.76,2.07-.48,3.22.27,1.1.91,1.97,1.92,2.62,1.01.63,2.09.79,3.26.51,1.17-.29,2.05-.93,2.66-1.93.6-1,.76-2.08.47-3.25s-.93-2.05-1.93-2.66Z"/>
    </g>
  </g>
</svg>