<?xml version="1.0" encoding="UTF-8"?>
<svg id="_レイヤー_2" data-name="レイヤー 2" xmlns="http://www.w3.org/2000/svg" viewBox="0 0 354.43 338.21">
  <defs>
    <style>
      .cls-1 {
        fill: #1e1e1e;
      }

      .cls-2 {
        fill: none;
      }
    </style>
  </defs>
  <g id="_レイヤー_1-2" data-name="レイヤー 1">
    <polygon class="cls-1" points="303.15 262.42 296.29 265.16 298.9 251.76 303.15 262.42"/>
    <g>
      <polygon class="cls-1" points="354.43 243.99 340.02 207.88 330.94 211.5 317.6 178.06 307.98 181.9 288.98 178.2 259.11 331.51 279.58 335.5 292.05 271.49 303.41 299.97 321.58 292.73 309.65 262.84 321.73 258.02 307.31 221.91 301.23 224.33 305.64 201.73 313.55 221.55 322.93 217.8 333.96 245.45 322.03 250.21 337.77 289.67 353.98 283.2 340.55 249.54 354.43 243.99"/>
      <g>
        <path class="cls-1" d="M271.89,54.56C252.94,21.94,217.65,0,177.22,0s-75.72,21.94-94.67,54.56h189.34Z"/>
        <path class="cls-1" d="M286.66,109.45c0-13.59-2.5-26.6-7.02-38.6H74.8c-4.53,12.01-7.02,25.01-7.02,38.6,0,44.85,26.99,83.37,65.59,100.28h-3.69c-35.91,28.37-53.17,69.78-57.09,128.48h209.27c-3.93-58.7-21.18-100.12-57.09-128.48h-3.69c38.61-16.91,65.59-55.43,65.59-100.28Z"/>
      </g>
    </g>
    <rect class="cls-2" x="0" y="0" width="354.43" height="338.21"/>
  </g>
</svg>