<?xml version="1.0" encoding="UTF-8"?>
<svg id="_レイヤー_2" data-name="レイヤー 2" xmlns="http://www.w3.org/2000/svg" viewBox="0 0 311.82 338.76">
  <defs>
    <style>
      .cls-1 {
        fill: #1e1e1e;
      }
    </style>
  </defs>
  <g id="_レイヤー_1-2" data-name="レイヤー 1">
    <g>
      <circle class="cls-1" cx="167.75" cy="268.93" r="14.45"/>
      <circle class="cls-1" cx="182.2" cy="294.59" r="6.74"/>
      <path class="cls-1" d="M311.82,262.92l-53.25-181.3-.09.05C246.18,34.56,204.9,0,155.91,0S65.64,34.56,53.34,81.67l-.09-.05L0,262.92l63,20.03-8.23,55.8h202.27l-8.23-55.8,63-20.03ZM155.08,327.21c-24.48,0-44.32-19.84-44.32-44.32s19.84-44.32,44.32-44.32,44.32,19.84,44.32,44.32-19.84,44.32-44.32,44.32ZM240.01,238.1c-.53.09-1.05.14-1.57.14-4.23,0-7.98-3.03-8.74-7.34l-12.53-70.55-1.52,1.66c-.09.1-.19.16-.28.25-.1.1-.18.22-.29.32-.16.14-.34.25-.5.38-.2.16-.39.31-.6.45-.3.2-.61.36-.93.52-.2.1-.4.21-.61.3-.37.15-.74.26-1.12.35-.18.05-.35.11-.52.15-.56.11-1.13.17-1.7.17,0,0,0,0,0,0s0,0,0,0c-.57,0-1.14-.06-1.7-.17-.18-.03-.35-.1-.52-.15-.38-.1-.76-.2-1.12-.35-.21-.09-.41-.2-.61-.3-.32-.16-.63-.32-.93-.52-.21-.14-.4-.3-.6-.45-.17-.13-.34-.23-.5-.38-.11-.1-.18-.22-.29-.32-.09-.09-.2-.15-.28-.25l-20.02-21.92-20.02,21.92c-.09.1-.19.16-.28.25-.1.1-.18.22-.29.32-.16.14-.34.25-.5.38-.2.16-.39.31-.6.45-.3.2-.61.36-.93.52-.2.1-.4.21-.61.3-.37.15-.74.26-1.12.35-.18.05-.35.11-.52.15-.56.11-1.13.17-1.7.17,0,0,0,0,0,0s0,0,0,0c-.57,0-1.14-.06-1.7-.17-.18-.03-.35-.1-.52-.15-.38-.1-.76-.2-1.12-.35-.21-.09-.41-.2-.61-.3-.32-.16-.63-.32-.93-.52-.21-.14-.4-.3-.6-.45-.17-.13-.34-.23-.5-.38-.11-.1-.18-.22-.29-.32-.09-.09-.2-.15-.28-.25l-20.02-21.92-20.02,21.92c-.09.1-.19.16-.28.25-.1.1-.18.22-.29.32-.16.14-.34.25-.5.38-.2.16-.39.31-.6.45-.3.2-.61.36-.93.52-.2.1-.4.21-.61.3-.37.15-.74.26-1.12.35-.18.05-.35.11-.52.15-.56.11-1.13.17-1.7.17,0,0,0,0,0,0s0,0,0,0c-.57,0-1.14-.06-1.7-.17-.18-.03-.35-.1-.52-.15-.38-.1-.76-.2-1.12-.35-.21-.09-.41-.2-.61-.3-.32-.16-.63-.32-.93-.52-.21-.14-.4-.3-.6-.45-.17-.13-.34-.23-.5-.38-.11-.1-.18-.22-.29-.32-.09-.09-.2-.15-.28-.25l-1.67-1.83-12.38,69.7c-.77,4.31-4.52,7.34-8.74,7.34-.52,0-1.04-.05-1.57-.14-4.84-.86-8.06-5.47-7.2-10.31l14.76-83.15-9.8-10.73c-3.31-3.63-3.06-9.25.57-12.56,3.63-3.31,9.25-3.06,12.56.57l10.96,11.99c1.37.86,2.46,2.07,3.19,3.49l5.88,6.44,20.02-21.92c.09-.1.2-.17.3-.26.1-.1.17-.21.27-.3.13-.11.27-.19.4-.3.24-.19.48-.38.73-.54.24-.16.49-.3.74-.43.26-.14.52-.26.79-.37.27-.11.54-.2.82-.28.27-.08.54-.15.82-.2.29-.06.57-.09.86-.12.28-.03.56-.04.84-.04.29,0,.57.02.85.04.28.03.56.07.84.12.28.05.55.12.83.21.27.08.54.17.81.28.27.11.54.24.8.37.25.13.5.27.74.43.25.17.5.35.74.55.13.11.27.18.4.3.1.09.18.21.27.3.09.09.2.16.3.26l20.02,21.92,20.02-21.92c.09-.1.2-.17.3-.26.1-.1.17-.21.27-.3.13-.11.27-.19.4-.3.24-.19.48-.38.73-.54.24-.16.49-.3.74-.44.26-.14.52-.26.79-.37.27-.11.54-.2.82-.28.27-.08.54-.15.82-.2.29-.06.57-.09.86-.12.28-.03.56-.04.84-.04.29,0,.57.02.85.04.28.03.56.07.84.12.28.05.55.12.83.21.27.08.54.17.81.28.27.11.54.24.8.37.25.13.5.27.74.43.25.17.5.35.73.55.13.11.27.18.4.3.1.09.18.21.27.3.09.09.2.16.3.26l20.02,21.92,20.02-21.92c3.31-3.63,8.94-3.88,12.56-.57,3.63,3.31,3.88,8.94.57,12.56l-9.95,10.89,14.92,84c.86,4.84-2.36,9.45-7.2,10.31Z"/>
    </g>
  </g>
</svg>