<?xml version="1.0" encoding="UTF-8"?>
<svg id="_レイヤー_2" data-name="レイヤー 2" xmlns="http://www.w3.org/2000/svg" viewBox="0 0 417.33 417.33">
  <defs>
    <style>
      .cls-1 {
        fill: #fcfcfc;
      }

      .cls-2 {
        fill: none;
      }
    </style>
  </defs>
  <g id="_レイヤー_1-2" data-name="レイヤー 1">
    <path class="cls-2" d="M0,0h417.33v417.33H0V0Z"/>
    <path class="cls-1" d="M347.78,139.11H69.56c-9.6,0-17.39-7.78-17.39-17.39s7.79-17.39,17.39-17.39h278.22c9.6,0,17.39,7.78,17.39,17.39s-7.79,17.39-17.39,17.39Z"/>
    <path class="cls-1" d="M173.89,313c-9.6,0-17.39-7.78-17.39-17.39v-104.33c0-9.61,7.79-17.39,17.39-17.39s17.39,7.78,17.39,17.39v104.33c0,9.61-7.79,17.39-17.39,17.39Z"/>
    <path class="cls-1" d="M243.45,313c-9.6,0-17.39-7.78-17.39-17.39v-104.33c0-9.61,7.79-17.39,17.39-17.39s17.39,7.78,17.39,17.39v104.33c0,9.61-7.79,17.39-17.39,17.39Z"/>
    <path class="cls-1" d="M278.22,382.55h-139.11c-28.77,0-52.17-23.4-52.17-52.17l-17.33-207.22c-.8-9.58,6.32-17.97,15.89-18.76,9.5-1.09,17.97,6.3,18.77,15.88l17.39,208.67c.06,11.04,7.86,18.83,17.45,18.83h139.11c9.59,0,17.39-7.79,17.39-17.39l17.45-210.11c.8-9.58,9.25-16.88,18.77-15.88,9.57.8,16.68,9.19,15.89,18.76l-17.39,208.67c.06,27.32-23.34,50.72-52.11,50.72Z"/>
    <path class="cls-1" d="M260.83,139.11c-9.6,0-17.39-7.78-17.39-17.39v-52.17h-69.56v52.17c0,9.61-7.79,17.39-17.39,17.39s-17.39-7.78-17.39-17.39v-52.17c0-19.17,15.6-34.78,34.78-34.78h69.56c19.18,0,34.78,15.61,34.78,34.78v52.17c0,9.61-7.79,17.39-17.39,17.39Z"/>
  </g>
</svg>