<?xml version="1.0" encoding="UTF-8"?>
<svg id="_レイヤー_2" data-name="レイヤー 2" xmlns="http://www.w3.org/2000/svg" xmlns:xlink="http://www.w3.org/1999/xlink" viewBox="0 0 102.22 102.22">
  <defs>
    <style>
      .cls-1 {
        fill: #fff;
      }

      .cls-2 {
        fill: none;
      }

      .cls-3 {
        fill: url(#_名称未設定グラデーション_224);
      }
    </style>
    <linearGradient id="_名称未設定グラデーション_224" data-name="名称未設定グラデーション 224" x1="-9.35" y1="16.2" x2="111.58" y2="86.02" gradientUnits="userSpaceOnUse">
      <stop offset="0" stop-color="#0b59ff"/>
      <stop offset=".34" stop-color="#0766f8"/>
      <stop offset=".93" stop-color="#0086e9"/>
    </linearGradient>
  </defs>
  <g id="_レイヤー_1-2" data-name="レイヤー 1">
    <rect class="cls-3" width="102.22" height="102.22"/>
    <g>
      <path class="cls-2" d="M16.71,16.71h68.8v68.8H16.71V16.71Z"/>
      <path class="cls-1" d="M51.11,79.26c-1.3,0-2.35-1.05-2.35-2.35,0-1.87-1.52-3.39-3.39-3.39h-17.2c-2.87,0-5.21-2.34-5.21-5.21V28.18c0-2.87,2.34-5.21,5.21-5.21h17.2c2.24,0,4.27.92,5.74,2.39,1.46-1.48,3.49-2.39,5.73-2.39h17.2c2.87,0,5.21,2.34,5.21,5.21v40.13c0,2.87-2.34,5.21-5.21,5.21h-17.2c-1.87,0-3.39,1.52-3.39,3.39,0,1.3-1.05,2.35-2.35,2.35ZM28.18,27.66c-.29,0-.52.23-.52.52v40.13c0,.29.23.52.52.52h17.2c2.24,0,4.27.92,5.74,2.39,1.46-1.48,3.49-2.39,5.73-2.39h17.2c.29,0,.52-.23.52-.52V28.18c0-.29-.23-.52-.52-.52h-17.2c-1.87,0-3.39,1.52-3.39,3.39,0,1.3-1.05,2.35-2.35,2.35s-2.35-1.05-2.35-2.35c0-1.87-1.52-3.39-3.39-3.39h-17.2Z"/>
      <path class="cls-1" d="M51.11,79.26c-1.3,0-2.35-1.05-2.35-2.35V31.05c0-1.3,1.05-2.35,2.35-2.35s2.35,1.05,2.35,2.35v45.86c0,1.3-1.05,2.35-2.35,2.35Z"/>
      <path class="cls-1" d="M39.64,39.12h-2.87c-1.3,0-2.35-1.05-2.35-2.35s1.05-2.35,2.35-2.35h2.87c1.3,0,2.35,1.05,2.35,2.35s-1.05,2.35-2.35,2.35Z"/>
      <path class="cls-1" d="M39.64,50.59h-2.87c-1.3,0-2.35-1.05-2.35-2.35s1.05-2.35,2.35-2.35h2.87c1.3,0,2.35,1.05,2.35,2.35s-1.05,2.35-2.35,2.35Z"/>
      <path class="cls-1" d="M65.44,39.12h-2.87c-1.3,0-2.35-1.05-2.35-2.35s1.05-2.35,2.35-2.35h2.87c1.3,0,2.35,1.05,2.35,2.35s-1.05,2.35-2.35,2.35Z"/>
      <path class="cls-1" d="M65.44,50.59h-2.87c-1.3,0-2.35-1.05-2.35-2.35s1.05-2.35,2.35-2.35h2.87c1.3,0,2.35,1.05,2.35,2.35s-1.05,2.35-2.35,2.35Z"/>
      <path class="cls-1" d="M65.44,62.06h-2.87c-1.3,0-2.35-1.05-2.35-2.35s1.05-2.35,2.35-2.35h2.87c1.3,0,2.35,1.05,2.35,2.35s-1.05,2.35-2.35,2.35Z"/>
    </g>
  </g>
</svg>